<svg id="Layer_1" data-name="Layer 1" xmlns="http://www.w3.org/2000/svg" width="658.57" height="287.18" viewBox="0 0 658.57 287.18"><defs><style>.cls-1{fill:#2b2b2a;}</style></defs><title>logo</title><path class="cls-1" d="M32.24,240.2v-126h14.4A72.6,72.6,0,0,1,63.92,116a41.47,41.47,0,0,1,11.79,4.68,19.63,19.63,0,0,1,6.66,6.39A13.6,13.6,0,0,1,84.44,134a11.55,11.55,0,0,1-4.5,9.63,36.33,36.33,0,0,1-9.9,5.49A60.66,60.66,0,0,1,55.64,152a49.65,49.65,0,0,1,18,6.84,38.68,38.68,0,0,1,6.66,5.4,36.24,36.24,0,0,1,5.76,7.65,42.49,42.49,0,0,1,4,10.17,51.43,51.43,0,0,1,1.53,13.14,49.92,49.92,0,0,1-3.24,18.36A40.19,40.19,0,0,1,65,237a50,50,0,0,1-18.36,3.24ZM70,134a14.51,14.51,0,0,0-5.58-11.52q-5.58-4.67-17.82-4.68v32.4q12.24,0,17.82-4.68A14.45,14.45,0,0,0,70,134Zm5.4,61.2a68,68,0,0,0-2.25-18.63,38.43,38.43,0,0,0-6.12-12.87A24.53,24.53,0,0,0,58,156.23a26.54,26.54,0,0,0-11.34-2.43v82.8A26.54,26.54,0,0,0,58,234.17a24.33,24.33,0,0,0,9.09-7.47,38.24,38.24,0,0,0,6.12-12.87A68,68,0,0,0,75.44,195.2Z"/><path class="cls-1" d="M161.84,240.2h-14.4V227.78a38.24,38.24,0,0,1-5,6.3,28.91,28.91,0,0,1-5.67,4.41,13.89,13.89,0,0,1-7.29,1.89,20.62,20.62,0,0,1-8.91-2,23.85,23.85,0,0,1-7.47-5.49,25.86,25.86,0,0,1-5.13-8.46A30.79,30.79,0,0,1,106,213.38q0-14.94,8-22.77t24.39-7.83a15.6,15.6,0,0,1,2.88.27c1,.18,1.92.4,2.88.63a32.62,32.62,0,0,0,3.24.9V169.92q0-8.64-3.33-12.46t-7.47-3.84a12.25,12.25,0,0,0-7.74,2.86,42.08,42.08,0,0,0-6.3,6.11,54.57,54.57,0,0,0-5.76,9v-16a54.9,54.9,0,0,1,5.94-2.75q2.7-.92,6.3-1.84a31.34,31.34,0,0,1,7.74-.92q12.06,0,18.54,5.93a19.78,19.78,0,0,1,6.48,15.29Zm-23.4-53.82a14.22,14.22,0,0,0-6.66,1.71,17.72,17.72,0,0,0-5.76,5,26.54,26.54,0,0,0-4,8.46,41.37,41.37,0,0,0-1.53,11.79q0,11.53,4,16.56t8.64,5a9,9,0,0,0,5.31-1.89,22.58,22.58,0,0,0,4.59-4.41,44.19,44.19,0,0,0,4.5-6.3v-34.2a30.11,30.11,0,0,1-3.24-.9q-1.44-.36-2.88-.63A15.6,15.6,0,0,0,138.44,186.38Z"/><path class="cls-1" d="M201.26,240.2h-14.4v-126h14.4v48.73a27.7,27.7,0,0,1,4.14-6.45,26,26,0,0,1,5.31-4.43,13.85,13.85,0,0,1,7.65-2,21.74,21.74,0,0,1,10.35,2.87,30.22,30.22,0,0,1,9.63,8.6,47.5,47.5,0,0,1,7,14.17,64.12,64.12,0,0,1,2.7,19.54,64.14,64.14,0,0,1-2.7,19.55,47.5,47.5,0,0,1-7,14.17,30.1,30.1,0,0,1-9.63,8.6,21.72,21.72,0,0,1-10.35,2.86,14.89,14.89,0,0,1-7.65-1.84,21.07,21.07,0,0,1-5.31-4.29,22.19,22.19,0,0,1-4.14-6.13Zm0-17.23a27.72,27.72,0,0,0,3.78,6,22.41,22.41,0,0,0,4.59,4.2,10.36,10.36,0,0,0,6,1.8,10.47,10.47,0,0,0,5.58-1.81,15.79,15.79,0,0,0,5.22-6.4,48.26,48.26,0,0,0,3.87-12.19,101.23,101.23,0,0,0,1.53-19.38,101.33,101.33,0,0,0-1.53-19.28,48.27,48.27,0,0,0-3.87-12.28,15.79,15.79,0,0,0-5.22-6.4,10.49,10.49,0,0,0-5.58-1.82,9.71,9.71,0,0,0-6,2,29.27,29.27,0,0,0-4.59,4.34,36.79,36.79,0,0,0-3.78,6.33Z"/><path class="cls-1" d="M267.86,150.2h14.4v68.89q0,7.95,3.6,11.92a11.63,11.63,0,0,0,9,4,12,12,0,0,0,6.39-1.83,22.6,22.6,0,0,0,5.13-4.27,36.32,36.32,0,0,0,4.68-6.1V150.2h14.4v90h-14.4V228a26.2,26.2,0,0,1-5.22,6.19,24.52,24.52,0,0,1-6.21,4.33,18.33,18.33,0,0,1-8.37,1.85q-10.8,0-17.1-5.92a20,20,0,0,1-6.3-15.29Z"/><path class="cls-1" d="M386.65,219.43a13.4,13.4,0,0,0-2.88-8.41,36.43,36.43,0,0,0-7.2-6.94q-4.32-3.21-9.27-6.34A71.3,71.3,0,0,1,358,190.8a36.73,36.73,0,0,1-7.2-8.59A21.57,21.57,0,0,1,348,170.85a19.36,19.36,0,0,1,6.39-15q6.39-5.82,17.91-5.82a27.18,27.18,0,0,1,16.56,5.48,23.05,23.05,0,0,1,5,5.29,18.58,18.58,0,0,1,2.7,5.65l-9.9,8.58q0-10.7-4.5-16.05t-9.9-5.35a13.35,13.35,0,0,0-9.81,3.65q-3.69,3.64-3.69,10.24a11.59,11.59,0,0,0,2.88,7.72,38.7,38.7,0,0,0,7.2,6.42c2.88,2,6,4.11,9.27,6.24a74.44,74.44,0,0,1,9.27,7.12,35.6,35.6,0,0,1,7.2,9,26.14,26.14,0,0,1,1,21.69,22.65,22.65,0,0,1-5.4,7.72,24.84,24.84,0,0,1-8.28,5.12,29.7,29.7,0,0,1-29.52-4.92,25.39,25.39,0,0,1-5.94-7.17,26,26,0,0,1-3-8.56l11.7-10.29a49.69,49.69,0,0,0,1.53,13.21,32.87,32.87,0,0,0,3.87,9.09,15.61,15.61,0,0,0,5.22,5.24,11.37,11.37,0,0,0,5.58,1.62A14.38,14.38,0,0,0,382.06,232Q386.65,227.24,386.65,219.43Z"/><path class="cls-1" d="M474.85,240.2h-14.4V171.32q0-7.95-3.6-11.92a11.64,11.64,0,0,0-9-4,10.91,10.91,0,0,0-6.39,2.09,28.86,28.86,0,0,0-5.13,4.56,53.06,53.06,0,0,0-4.68,6.64V240.2h-14.4v-126h14.4v49.28a34,34,0,0,1,5.22-6.73,30,30,0,0,1,6.21-4.61,16.53,16.53,0,0,1,8.37-2.12q10.8,0,17.1,5.93a20.05,20.05,0,0,1,6.3,15.29Z"/><path class="cls-1" d="M499.87,240.2v-126h14.4v64.62a16.46,16.46,0,0,0,9.9-3.26,25.82,25.82,0,0,0,6.75-8.6q3.15-5.88,3.15-16.76h14.4q0,10.8-4.5,17a29.68,29.68,0,0,1-9.9,9.09,36.57,36.57,0,0,1-14.4,4.5,33,33,0,0,1,17.1,8.1,42.65,42.65,0,0,1,6.3,7.2,49.24,49.24,0,0,1,5.49,10.53,75.58,75.58,0,0,1,3.87,14.49,112.46,112.46,0,0,1,1.44,19.08h-16.2a152.2,152.2,0,0,0-1-18.45,94.82,94.82,0,0,0-2.7-14,62.75,62.75,0,0,0-3.78-10.26,37.94,37.94,0,0,0-4.23-6.93q-5.22-6.48-11.7-7.92v57.6Z"/><path class="cls-1" d="M622.09,240.2h-14.4V227.78a38.24,38.24,0,0,1-5,6.3,28.91,28.91,0,0,1-5.67,4.41,13.89,13.89,0,0,1-7.29,1.89,20.62,20.62,0,0,1-8.91-2,23.85,23.85,0,0,1-7.47-5.49,25.86,25.86,0,0,1-5.13-8.46,30.79,30.79,0,0,1-1.89-11.07q0-14.94,8-22.77t24.39-7.83a15.6,15.6,0,0,1,2.88.27c1,.18,1.92.4,2.88.63a32.62,32.62,0,0,0,3.24.9V169.92q0-8.64-3.33-12.46t-7.47-3.84a12.25,12.25,0,0,0-7.74,2.86,42.08,42.08,0,0,0-6.3,6.11,54.57,54.57,0,0,0-5.76,9v-16a54.9,54.9,0,0,1,5.94-2.75q2.7-.92,6.3-1.84a31.34,31.34,0,0,1,7.74-.92q12.06,0,18.54,5.93a19.78,19.78,0,0,1,6.48,15.29Zm-23.4-53.82a14.22,14.22,0,0,0-6.66,1.71,17.72,17.72,0,0,0-5.76,5,26.54,26.54,0,0,0-4,8.46,41.37,41.37,0,0,0-1.53,11.79q0,11.53,4,16.56t8.64,5a9,9,0,0,0,5.31-1.89,22.58,22.58,0,0,0,4.59-4.41,44.19,44.19,0,0,0,4.5-6.3v-34.2a30.11,30.11,0,0,1-3.24-.9q-1.44-.36-2.88-.63A15.6,15.6,0,0,0,598.69,186.38Z"/><path class="cls-1" d="M329.24,26.6h20.2a19.53,19.53,0,0,1,13.2,4.95,15.6,15.6,0,0,1,5.7,12.25q0,7.8-7.7,12.8c-.73.4-1.1.77-1.1,1.1s.5.54,1.5.8a15.08,15.08,0,0,1,8.25,5.7,14.78,14.78,0,0,1,3.35,9q0,9-6.4,14-5.6,4.41-14.1,4.4h-22.9a1.5,1.5,0,0,1-1.7-1.7V28.3A1.51,1.51,0,0,1,329.24,26.6Zm5.4,6.2V55.4c1.4,0,3.5,0,6.3.1h8.2a10.78,10.78,0,0,0,8.1-3.6,12,12,0,0,0,3.4-8.5,12.15,12.15,0,0,0-4.6-10A17.23,17.23,0,0,0,345,30h-7.9C335.47,30,334.64,30.94,334.64,32.8Zm3.2,26.9c-2.13,0-3.2.87-3.2,2.59V85.92a1.24,1.24,0,0,0,1.1,1.38,10,10,0,0,0,2.1.1h10.3q7.31,0,11.6-2.88a10.83,10.83,0,0,0,4.9-9.63,14.26,14.26,0,0,0-4.55-11q-4.54-4.17-11.75-4.17Z"/><path class="cls-1" d="M389.54,28.4a1.51,1.51,0,0,1,1.7-1.7h3.7a1.51,1.51,0,0,1,1.7,1.7V90a1.5,1.5,0,0,1-1.7,1.7h-3.7a1.5,1.5,0,0,1-1.7-1.7Z"/><path class="cls-1" d="M431.44,25.1q8.21,0,13.7,7c1,1.2,1,2.1.1,2.7a4.12,4.12,0,0,1-.95.6,2.69,2.69,0,0,1-1.15.4c-.27,0-.7-.43-1.3-1.3q-4-6.19-10.1-6.2a11.33,11.33,0,0,0-9.3,4.2,14.7,14.7,0,0,0-3.1,9.6,10.46,10.46,0,0,0,3.6,8.2,34.32,34.32,0,0,0,8.2,4.6q8.81,3.9,11.8,6.5,5.21,4.5,5.2,12.1a18.62,18.62,0,0,1-5.9,14.1A19.86,19.86,0,0,1,428,93.2q-10.5,0-15.9-8.6c-.53-.8-.5-1.43.1-1.9a7,7,0,0,1,1.8-1.2.92.92,0,0,1,1.2.4,4.38,4.38,0,0,0,.5.9q5.4,7,11.1,7a12.84,12.84,0,0,0,9.9-4.1,14.28,14.28,0,0,0,3.5-9.9,12.11,12.11,0,0,0-4.4-9.9q-2.1-1.8-9.9-5.4-7.1-3.3-10-6.1a15,15,0,0,1-4.4-11.2,16.45,16.45,0,0,1,5.95-12.9A20.57,20.57,0,0,1,431.44,25.1Z"/><path class="cls-1" d="M472.94,32.3a3,3,0,0,0-.15-1.35,3,3,0,0,0-1.35-.15h-11.9c-1.53,0-2.3-.4-2.3-1.2V27.9c0-.8,1-1.2,2.9-1.2h32.6c1.87,0,2.8.4,2.8,1.2v1.7c0,.8-.73,1.2-2.2,1.2h-10.1a10.82,10.82,0,0,0-2.1.1,1.26,1.26,0,0,0-1.1,1.4V90a1.5,1.5,0,0,1-1.7,1.7h-3.7a1.5,1.5,0,0,1-1.7-1.7Z"/><path class="cls-1" d="M532,61.7a3,3,0,0,0,.7,1.5l18.9,26.7a1,1,0,0,1,.1.4c0,.94-.5,1.4-1.5,1.4h-4.7a2.85,2.85,0,0,1-2.4-.9l-22.2-31.2a2.12,2.12,0,0,1-.5-1.2c0-.66.73-.9,2.2-.7a79.78,79.78,0,0,0,8.7,0,13.61,13.61,0,0,0,9.75-3.9,12.58,12.58,0,0,0,3.85-9.3,13.63,13.63,0,0,0-4.4-10.65,15.62,15.62,0,0,0-10.8-4h-11.6c-1.4,0-2.1.57-2.1,1.7V90a1.5,1.5,0,0,1-1.7,1.7h-3.7a1.5,1.5,0,0,1-1.7-1.7V28.4a1.5,1.5,0,0,1,1.7-1.7h19.1q9.6,0,15.9,4a14.68,14.68,0,0,1,7.2,13.1,15.84,15.84,0,0,1-5.7,12.6,18.71,18.71,0,0,1-12.5,4.5C532.9,60.9,532,61.17,532,61.7Z"/><path class="cls-1" d="M564.74,58.8A34.53,34.53,0,0,1,574,34.55q9.24-10,22.35-10t22.3,10a34.67,34.67,0,0,1,9.2,24.25,34.65,34.65,0,0,1-9.2,24.25q-9.21,10-22.3,10T574,83.05A34.52,34.52,0,0,1,564.74,58.8Zm8.8-.2q0,13.8,6.5,22.55t16.6,8.75q10,0,16.5-8.9t6.5-22.4q0-13-6.75-22.15T596.64,27.3q-9.6,0-16.35,9.15T573.54,58.6Z"/></svg>
